<svg width="1200" height="850" viewBox="0 0 1200 850" fill="none" xmlns="http://www.w3.org/2000/svg">
<g opacity="0.3">
<path opacity="0.31" d="M489.101 0L400.301 154H443.401L532.201 0H489.101V0Z" fill="#00B6FF"/>
<path opacity="0.79" d="M569.9 0L441.6 222.5H474.8L603.1 0H569.9V0Z" fill="#009BD8"/>
<path opacity="0.3" d="M398.6 0L274 216.2H317L441.7 0H398.6V0Z" fill="#00B6FF"/>
<path opacity="0.41" d="M0 153.5L88.5 0H42L0 72.8V153.5V153.5Z" fill="#009BD8"/>
<path opacity="0.12" d="M272.601 0L164.801 186.9H204.501L312.301 0H272.601V0Z" fill="#00B6FF"/>
<path opacity="0.82" d="M332.401 0L223.301 189.2H262.501L371.701 0H332.401V0Z" fill="#00597C"/>
<path opacity="0.87" d="M554.8 0L462.4 160.3H512.5L605 0H554.8V0Z" fill="#00B6FF"/>
<path opacity="0.64" d="M97.4008 450.6H47.3008L283.601 40.8H333.801L97.4008 450.6V450.6Z" fill="#009BD8"/>
<path opacity="0.87" d="M319.301 0L83.8008 408.3H141.001L376.501 0H319.301V0Z" fill="#00B6FF"/>
<path opacity="0.2" d="M173.299 0L109.699 110.3H160.099L223.699 0H173.299V0Z" fill="#00A2E2"/>
<path opacity="0.94" d="M197.3 358.5H170.9L295.2 143.1H321.5L197.3 358.5V358.5Z" fill="#00B6FF"/>
<path opacity="0.68" d="M165.299 0L75.1992 156.3H107.299L197.399 0H165.299V0Z" fill="#00B6FF"/>
<path opacity="0.75" d="M524.199 0L400.699 214.2H461.899L585.399 0H524.199V0Z" fill="#00A2E2"/>
<path opacity="0.56" d="M216.5 0L183 58.1H240.9L274.4 0H216.5V0Z" fill="#00B6FF"/>
<path opacity="0.49" d="M0 299.1L135.1 64.9H97L0 233.2V299.1V299.1Z" fill="#009BD8"/>
<path opacity="0.6" d="M172.6 0L154.6 31.2H192.1L210.1 0H172.6V0Z" fill="#00B6FF"/>
<path opacity="0.3" d="M597.5 0L591 11.3H642.7L649.2 0H597.5V0Z" fill="#00597C"/>
<path opacity="0.51" d="M653.5 0L624.4 50.5H664.5L693.7 0H653.5V0Z" fill="#00B6FF"/>
<path opacity="0.72" d="M174.2 0L75 172H111.2L210.4 0H174.2V0Z" fill="#00597C"/>
<path opacity="0.34" d="M538.701 0L350.801 325.8H393.801L581.601 0H538.701V0Z" fill="#009BD8"/>
<path opacity="0.11" d="M0 78.3L45.1 0H9L0 15.6V78.3V78.3Z" fill="#00B6FF"/>
<path opacity="0.99" d="M406.2 341.6H376.5L516.4 99.2H546L406.2 341.6V341.6Z" fill="#00597C"/>
<path opacity="0.19" d="M0 257.7L148.6 0H107.5L0 186.5V257.7V257.7Z" fill="#00B6FF"/>
<path opacity="0.42" d="M473.301 0L398.301 130.1H445.201L520.201 0H473.301V0Z" fill="#00B6FF"/>
<path opacity="0.99" d="M206.4 70.9L0 428.8V475.2H22.7L255.9 70.9H206.4V70.9Z" fill="#00A2E2"/>
<path opacity="0.56" d="M335.6 0L148 325.3H205.7L393.3 0H335.6V0Z" fill="#00597C"/>
<path opacity="0.44" d="M547.4 0L460.6 150.6H490.9L577.7 0H547.4V0Z" fill="#00597C"/>
<path opacity="0.22" d="M244.7 256.4H214.4L357.4 8.39999H387.7L244.7 256.4V256.4Z" fill="#00B6FF"/>
<path opacity="0.12" d="M0 152.7L50.8 64.6H6L0 75V152.7V152.7Z" fill="#00B6FF"/>
<path opacity="0.91" d="M260.301 0L153.301 185.5H200.901L307.901 0H260.301V0Z" fill="#00597C"/>
<path opacity="0.92" d="M95.0004 467.7H53.9004L247.3 132.4H288.3L95.0004 467.7V467.7Z" fill="#009BD8"/>
<path opacity="0.38" d="M240.4 523.3H192.6L417.6 133.1H465.4L240.4 523.3V523.3Z" fill="#00B6FF"/>
<path opacity="0.57" d="M0 339.2L195.6 0H140.3L0 243.4V339.2V339.2Z" fill="#00B6FF"/>
<path opacity="0.2" d="M92.2004 0L2.90039 154.9H41.4004L130.7 0H92.2004V0Z" fill="#00B6FF"/>
<path opacity="0.48" d="M204.399 522.9H140.699L440.899 2.3H504.599L204.399 522.9V522.9Z" fill="#00B6FF"/>
<path opacity="0.31" d="M1101.9 850L1200 679.9V609.7L1061.4 850H1101.9V850Z" fill="#00B6FF"/>
<path opacity="0.79" d="M1168.6 850L1200 795.6V741.4L1137.4 850H1168.6V850Z" fill="#009BD8"/>
<path opacity="0.3" d="M1016.7 850L1138 639.7H1097.5L976.301 850H1016.7V850Z" fill="#00B6FF"/>
<path opacity="0.41" d="M684.499 850L791.599 664.3H747.799L640.699 850H684.499V850Z" fill="#009BD8"/>
<path opacity="0.12" d="M895.099 850L1017.3 638H979.999L857.699 850H895.099V850Z" fill="#00B6FF"/>
<path opacity="0.82" d="M950.9 850L1070.1 643.2H1033.2L913.9 850H950.9V850Z" fill="#00597C"/>
<path opacity="0.87" d="M1170.4 850L1200 798.6V716.9L1123.2 850H1170.4V850Z" fill="#00B6FF"/>
<path opacity="0.64" d="M937.299 850L962.999 805.6H915.799L890.199 850H937.299V850Z" fill="#009BD8"/>
<path opacity="0.87" d="M955.4 850L1035.2 711.7H981.4L901.6 850H955.4V850Z" fill="#00B6FF"/>
<path opacity="0.2" d="M811.599 850L1022.9 483.7H975.499L764.199 850H811.599V850Z" fill="#00A2E2"/>
<path opacity="0.78" d="M838.999 732.4H810.199L945.899 497.1H974.699L838.999 732.4V732.4Z" fill="#00B6FF"/>
<path opacity="0.64" d="M963.301 666.4H940.301L1048.4 478.9H1071.4L963.301 666.4V666.4Z" fill="#00597C"/>
<path opacity="0.45" d="M1200 725.6L1185.2 751.4H1200V725.6V725.6Z" fill="#009BD8"/>
<path opacity="0.68" d="M786.901 850L892.101 667.7H861.901L756.801 850H786.901V850Z" fill="#00B6FF"/>
<path opacity="0.75" d="M1152 850L1200 766.7V666.9L1094.4 850H1152V850Z" fill="#00A2E2"/>
<path opacity="0.56" d="M875.6 821.9H821.1L1077.9 376.7H1132.3L875.6 821.9V821.9Z" fill="#00B6FF"/>
<path opacity="0.49" d="M763.499 850L775.999 828.3H740.199L727.699 850H763.499V850Z" fill="#009BD8"/>
<path opacity="0.6" d="M829.7 796.6H794.4L960.8 508H996.1L829.7 796.6V796.6Z" fill="#00B6FF"/>
<path opacity="0.64" d="M778.7 761.5H749.5L887.2 522.7H916.4L778.7 761.5V761.5Z" fill="#00B6FF"/>
<path opacity="0.95" d="M1200 570.2H1191.5L1084.4 755.9H1107.1L1200 594.8V570.2V570.2Z" fill="#00A2E2"/>
<path opacity="0.72" d="M799.2 850L914 650.9H880L765.1 850H799.2V850Z" fill="#00597C"/>
<path opacity="0.34" d="M1148.4 850L1200 760.6V743.6H1169.4L1108 850H1148.4V850Z" fill="#009BD8"/>
<path opacity="0.11" d="M643.699 850L778.199 616.6H744.299L609.699 850H643.699V850Z" fill="#00B6FF"/>
<path opacity="0.19" d="M741 850L810.3 729.9H771.7L702.4 850H741V850Z" fill="#00B6FF"/>
<path opacity="0.42" d="M1090.6 850L1200 660.3V583.8L1046.5 850H1090.6V850Z" fill="#00B6FF"/>
<path opacity="0.99" d="M880.4 850L889.7 833.9H843.1L833.9 850H880.4V850Z" fill="#00A2E2"/>
<path opacity="0.56" d="M971.2 850L1098.1 629.9H1043.9L917 850H971.2V850Z" fill="#00597C"/>
<path opacity="0.44" d="M1144.7 850L1200 754.1V704.7L1116.2 850H1144.7V850Z" fill="#00597C"/>
<path opacity="0.22" d="M970.5 850L1013.7 775.1H985.2L942 850H970.5V850Z" fill="#00B6FF"/>
<path opacity="0.12" d="M684.1 850L696.8 828H654.6L641.9 850H684.1V850Z" fill="#00B6FF"/>
<path opacity="0.69" d="M724.101 739.2H679.801L888.801 376.7H933.101L724.101 739.2V739.2Z" fill="#00A2E2"/>
<path opacity="0.91" d="M890.8 850L1048.9 576H1004.1L846.1 850H890.8V850Z" fill="#00597C"/>
<path opacity="0.57" d="M785.301 850L878.101 689.1H826.001L733.301 850H785.301V850Z" fill="#00B6FF"/>
<path opacity="0.2" d="M724.2 850L858.4 617.3H822.2L688 850H724.2V850Z" fill="#00B6FF"/>
<path opacity="0.48" d="M1077.2 850L1123.7 769.4H1063.8L1017.3 850H1077.2V850Z" fill="#00B6FF"/>
</g>
</svg>
