<svg width="476" height="400" viewBox="0 0 476 400" fill="none" xmlns="http://www.w3.org/2000/svg">
<path fill-rule="evenodd" clip-rule="evenodd" d="M308 95.023V109.977L296.032 109.965C295.225 113.015 294.003 115.935 292.295 118.688L300.788 127.186L290.089 137.891L281.596 129.393C278.844 131.114 275.962 132.313 272.937 133.12L272.961 145L258.015 144.988L258.003 133.547C254.706 132.894 251.527 131.755 248.467 130.022L240.603 137.891L230.069 127.352L237.447 119.97C235.383 116.932 233.806 113.502 232.869 109.989L223.012 110.001L223 95.0586L232.371 95.0824C233.118 91.3202 234.66 87.5461 236.581 84.3535L230.069 77.8379L240.769 67.1328L247.281 73.6484C250.626 71.5596 254.279 70.1354 258.039 69.3759L258.027 60H272.973V69.8506C276.472 70.8001 279.9 72.3785 282.937 74.4555L290.267 67.1209L300.8 77.6599L292.995 85.4691C294.727 88.5311 295.842 91.7118 296.506 95.023H308ZM250.282 115.389C258.027 123.139 270.577 123.139 278.322 115.389C286.068 107.639 286.068 95.0824 278.322 87.3324C270.577 79.5825 258.027 79.5825 250.282 87.3324C242.536 95.0824 242.536 107.639 250.282 115.389Z" fill="#5ED45E"/>
<path fill-rule="evenodd" clip-rule="evenodd" d="M148 180.023V194.977L136.032 194.965C135.225 198.015 134.003 200.935 132.295 203.688L140.788 212.186L130.089 222.891L121.596 214.393C118.844 216.114 115.962 217.313 112.937 218.12L112.961 230L98.0154 229.988L98.0035 218.547C94.706 217.894 91.5271 216.755 88.4668 215.022L80.6026 222.891L70.0695 212.352L77.4474 204.97C75.3835 201.932 73.8059 198.502 72.8688 194.989L63.0119 195.001L63 180.059L72.3706 180.082C73.1179 176.32 74.6599 172.546 76.5815 169.354L70.0695 162.838L80.7686 152.133L87.2806 158.648C90.6256 156.56 94.279 155.135 98.0391 154.376L98.0272 145H112.973V154.851C116.472 155.8 119.9 157.379 122.937 159.455L130.267 152.121L140.8 162.66L132.995 170.469C134.727 173.531 135.842 176.712 136.506 180.023H148ZM93.4724 199.475C100.079 206.086 110.802 206.086 117.409 199.475C124.016 192.853 124.016 182.136 117.409 175.525C110.802 168.914 100.079 168.914 93.4724 175.525C86.8655 182.136 86.8655 192.864 93.4724 199.475Z" fill="#5ED45E"/>
<path fill-rule="evenodd" clip-rule="evenodd" d="M332.763 3H11.3915C6.75595 3 3 6.6613 3 11.3739V36H341V11.3739C341 6.6613 337.399 3 332.763 3ZM20.7338 24.6415C17.5365 24.6415 14.9454 22.0073 14.9454 18.7569C14.9454 15.5064 17.5365 12.8722 20.7338 12.8722C23.9311 12.8722 26.5222 15.5064 26.5222 18.7569C26.5222 22.0194 23.9311 24.6415 20.7338 24.6415ZM38.218 18.7569C38.218 22.0073 40.8091 24.6415 44.0064 24.6415C47.2038 24.6415 49.7949 22.0194 49.7949 18.7569C49.7949 15.5064 47.2038 12.8722 44.0064 12.8722C40.8091 12.8722 38.218 15.5064 38.218 18.7569Z" fill="#FCD118"/>
<path d="M464.52 190H343V216H473V198.323C473 193.723 469.195 190 464.52 190Z" fill="#FCD118"/>
<path fill-rule="evenodd" clip-rule="evenodd" d="M12.235 262.75H331.176C338.013 262.75 343.578 257.131 343.578 250.226V11.6548C343.578 5.5 338.584 0.5 332.436 0.5H11.3075C5.07709 0.5 0 5.57143 0 11.8214V250.417C0 257.214 5.49324 262.75 12.235 262.75ZM4.54203 11.8333C4.54203 8.09524 7.58591 5.05952 11.3075 5.05952H332.436C336.063 5.05952 339.024 8.0119 339.024 11.6548V250.238C339.024 254.56 335.421 258.202 331.164 258.202H12.2231C8.06152 258.202 4.54203 254.631 4.54203 250.417V11.8333Z" fill="white"/>
<path d="M307.764 37.5714H3.03176C1.7714 37.5714 0.760742 36.5476 0.760742 35.2976C0.760742 34.0357 1.78329 33.0238 3.03176 33.0238H307.764C309.025 33.0238 310.035 34.0476 310.035 35.2976C310.035 36.5476 309.025 37.5714 307.764 37.5714Z" fill="white"/>
<path d="M62.3755 34.9881C61.1152 34.9881 60.1045 33.9643 60.1045 32.7143V4.75001C60.1045 3.4881 61.127 2.4762 62.3755 2.4762C63.624 2.4762 64.6465 3.50001 64.6465 4.75001V32.7024C64.6465 33.9643 63.624 34.9881 62.3755 34.9881Z" fill="white"/>
<path fill-rule="evenodd" clip-rule="evenodd" d="M11.8901 17.8572C11.8901 23.1107 16.1552 27.381 21.4022 27.381C26.6493 27.381 30.9144 23.1107 30.9144 17.8572C30.9144 12.6036 26.6493 8.33337 21.4022 8.33337C16.1552 8.33337 11.8901 12.6036 11.8901 17.8572ZM16.6462 17.8572C16.6462 15.226 18.7743 13.0953 21.4022 13.0953C24.0302 13.0953 26.1583 15.226 26.1583 17.8572C26.1583 20.4883 24.0302 22.6191 21.4022 22.6191C18.7743 22.6191 16.6462 20.4883 16.6462 17.8572Z" fill="white"/>
<path fill-rule="evenodd" clip-rule="evenodd" d="M35.6704 17.8572C35.6704 23.1107 39.9354 27.381 45.1825 27.381C50.4296 27.381 54.6946 23.1107 54.6946 17.8572C54.6946 12.6036 50.4296 8.33337 45.1825 8.33337C39.9354 8.33337 35.6704 12.6036 35.6704 17.8572ZM40.4265 17.8572C40.4265 15.226 42.5546 13.0953 45.1825 13.0953C47.8104 13.0953 49.9386 15.226 49.9386 17.8572C49.9386 20.4883 47.8104 22.6191 45.1825 22.6191C42.5546 22.6191 40.4265 20.4883 40.4265 17.8572Z" fill="white"/>
<path d="M255.864 15.6904H74.9673C73.707 15.6904 72.6963 14.6666 72.6963 13.4166C72.6963 12.1547 73.7188 11.1428 74.9673 11.1428H255.864C257.124 11.1428 258.135 12.1666 258.135 13.4166C258.135 14.6666 257.124 15.6904 255.864 15.6904Z" fill="white"/>
<path d="M341.449 37.5714H330.831C329.571 37.5714 328.56 36.5476 328.56 35.2976C328.56 34.0357 329.583 33.0238 330.831 33.0238H341.449C342.709 33.0238 343.72 34.0476 343.72 35.2976C343.732 36.5476 342.709 37.5714 341.449 37.5714Z" fill="white"/>
<path fill-rule="evenodd" clip-rule="evenodd" d="M257.921 146.988L272.903 146.976C273.509 146.976 274.08 146.75 274.52 146.321C274.948 145.893 275.185 145.333 275.185 144.726L275.162 134.512C277.302 133.833 279.299 132.976 281.202 131.929L288.467 139.202C288.895 139.631 289.466 139.869 290.072 139.869C290.666 139.869 291.249 139.631 291.677 139.202L302.402 128.476C303.294 127.583 303.294 126.155 302.402 125.262L295.137 118C296.195 116.083 297.063 114.071 297.741 111.94L308.002 112.024C308.597 112.024 309.179 111.702 309.607 111.274C310.035 110.845 310.273 110.19 310.273 109.583V94.5833C310.273 93.988 310.035 93.3928 309.607 92.9642C309.179 92.5357 308.609 92.2738 308.002 92.2738L298.3 92.2976C297.694 89.869 296.849 87.619 295.767 85.4404L302.402 78.7976C303.294 77.9047 303.294 76.4642 302.402 75.5714L291.844 65C290.952 64.1071 289.513 64.1071 288.621 65L282.569 71.0595C280.239 69.6428 277.73 68.488 275.174 67.6547V59.4642C275.174 58.869 274.936 58.2857 274.508 57.8571C274.092 57.4285 273.509 57.1904 272.903 57.1904H257.921C257.326 57.1904 256.744 57.4285 256.316 57.8571C255.888 58.2857 255.65 58.869 255.65 59.4761L255.662 67.0595C252.82 67.7857 250.085 68.8809 247.517 70.2976L242.226 65C241.798 64.5714 241.227 64.3333 240.621 64.3333C240.026 64.3333 239.444 64.5714 239.016 65L228.291 75.738C227.399 76.619 227.399 78.0595 228.291 78.9523L233.618 84.2857C232.238 86.869 231.133 89.6309 230.419 92.369L222.833 92.3095H222.821C222.227 92.3095 221.644 92.5952 221.216 93.0238C220.788 93.4404 220.55 94.0714 220.55 94.6785L220.562 109.679C220.562 110.286 220.8 110.893 221.228 111.321C221.656 111.75 222.227 112.059 222.833 112.059L231.014 111.976C231.846 114.536 232.987 116.976 234.402 119.321L228.303 125.429C227.411 126.321 227.411 127.762 228.303 128.655L238.861 139.226C239.289 139.655 239.872 139.893 240.466 139.893C241.061 139.893 241.643 139.655 242.071 139.226L248.766 132.524C250.941 133.607 253.248 134.464 255.638 135.071L255.65 144.726C255.65 145.976 256.661 146.988 257.921 146.988ZM270.62 142.44H260.192L260.168 133.238C260.168 132.143 259.395 131.214 258.337 131C255.139 130.357 252.226 129.286 249.455 127.714C248.563 127.202 247.446 127.357 246.72 128.083L240.454 134.357L233.106 127.012L238.897 121.226C239.67 120.452 239.789 119.262 239.17 118.357C237.232 115.5 235.758 112.321 234.89 109.071C234.628 108.071 233.725 107.452 232.69 107.452L225.092 107.369L225.08 96.8571L232.191 96.8214H232.203C233.285 96.8214 234.224 96.0952 234.438 95.0357C235.116 91.6785 236.519 88.1547 238.386 85.0476C238.921 84.1547 238.778 83 238.041 82.2619L233.118 77.3333L240.621 69.8214L245.543 74.75C246.281 75.5 247.446 75.6309 248.349 75.0714C251.441 73.1428 254.818 71.7976 258.385 71.0833C259.455 70.869 260.216 69.9285 260.216 68.8452L260.204 61.7261H270.62V69.3333C270.62 70.369 271.309 71.2738 272.308 71.5357C275.542 72.4047 278.764 73.8928 281.606 75.8333C282.51 76.4523 283.723 76.3333 284.495 75.5595L290.227 69.8214L297.575 77.1666L291.356 83.3928C290.643 84.119 290.488 85.2261 290.987 86.119C292.545 88.869 293.615 91.7738 294.257 95.0119C294.471 96.0833 295.411 96.8214 296.493 96.8214L305.743 96.8095V107.238L296.041 107.155C295.006 107.155 294.103 107.929 293.841 108.929C293.068 111.845 291.891 114.655 290.357 117.131C289.798 118.024 289.929 119.19 290.678 119.94L297.575 126.845L290.072 134.357L283.176 127.452C282.427 126.702 281.261 126.571 280.358 127.131C277.896 128.667 275.257 129.798 272.296 130.595C271.297 130.857 270.608 131.762 270.608 132.798L270.62 142.44Z" fill="white"/>
<path fill-rule="evenodd" clip-rule="evenodd" d="M97.9627 231.81L112.944 231.762C113.539 231.762 114.121 231.571 114.573 231.155C115.001 230.726 115.239 230.202 115.239 229.595L115.215 219.381C117.355 218.702 119.353 217.845 121.255 216.798L128.52 224.071C128.948 224.5 129.531 224.738 130.126 224.738C130.72 224.738 131.303 224.5 131.731 224.071L142.456 213.333C143.347 212.452 143.347 211.012 142.456 210.119L135.191 202.845C136.249 200.917 137.117 198.893 137.795 196.762L148.056 196.798C148.65 196.798 149.233 196.512 149.661 196.083C150.089 195.655 150.327 195.036 150.327 194.429V179.417C150.327 178.81 150.089 178.202 149.661 177.774C149.233 177.357 148.662 177.048 148.056 177.048L138.353 177.119C137.747 174.702 136.903 172.488 135.821 170.31L142.456 163.667C143.347 162.774 143.347 161.333 142.456 160.441L131.897 149.869C131.469 149.441 130.898 149.202 130.292 149.202C129.697 149.202 129.115 149.441 128.687 149.869L122.635 155.929C120.304 154.512 117.795 153.357 115.239 152.524V144.333C115.239 143.738 115.001 143.155 114.573 142.726C114.157 142.298 113.574 142.06 112.968 142.06H97.9865C97.392 142.06 96.8093 142.298 96.3813 142.726C95.9533 143.155 95.7154 143.738 95.7154 144.345L95.7273 151.929C92.8856 152.655 90.1627 153.75 87.5826 155.167L82.2915 149.869C81.3997 148.976 79.961 148.976 79.0692 149.869L68.3443 160.607C67.9163 161.036 67.6785 161.619 67.6785 162.226C67.6785 162.833 67.9163 163.417 68.3443 163.845L73.6473 169.179C72.2681 171.75 71.1623 174.571 70.4489 177.31L62.863 177.357H62.8511C62.2566 177.357 61.674 177.524 61.2459 177.952C60.8179 178.381 60.5801 178.893 60.5801 179.5L60.592 194.488C60.592 195.083 60.8298 195.679 61.2578 196.107C61.6859 196.536 62.2566 196.798 62.863 196.798L71.0434 196.762C71.8757 199.321 73.0172 201.81 74.4321 204.155L68.3324 210.262C67.4407 211.155 67.4407 212.595 68.3324 213.488L78.8909 224.06C79.7827 224.952 81.2214 224.952 82.1131 224.06L88.8073 217.357C90.9832 218.452 93.2899 219.298 95.6798 219.905L95.6917 229.56C95.6917 230.821 96.7023 231.81 97.9627 231.81ZM110.649 227.31H100.222L100.198 218.107C100.198 217.012 99.4252 216.083 98.3669 215.869C95.1685 215.226 92.2554 214.155 89.485 212.583C88.5933 212.071 87.4756 212.226 86.7503 212.952L80.4842 219.226L73.1361 211.881L78.9266 206.095C79.6994 205.321 79.8183 204.119 79.2 203.214C77.2619 200.357 75.7876 197.155 74.9196 193.905C74.658 192.917 73.7544 192.25 72.7199 192.25L65.1221 192.262L65.1102 181.845L72.2205 181.929H72.2324C73.3144 181.929 74.2537 181.095 74.4678 180.036C75.1455 176.667 76.5485 173.036 78.4153 169.929C78.9503 169.036 78.8077 167.881 78.0705 167.143L73.148 162.214L80.6506 154.702L85.5732 159.631C86.3222 160.381 87.4756 160.512 88.3792 159.952C91.4707 158.024 94.8475 156.679 98.4145 155.964C99.4846 155.75 100.246 154.81 100.246 153.726L100.234 146.607H110.649V154.214C110.649 155.25 111.339 156.155 112.338 156.417C115.572 157.286 118.794 158.774 121.636 160.714C122.54 161.333 123.752 161.214 124.525 160.441L130.256 154.702L137.604 162.048L131.386 168.262C130.672 168.988 130.518 170.083 131.017 170.976C132.575 173.726 133.645 176.607 134.287 179.845C134.501 180.905 135.44 181.607 136.522 181.607L145.773 181.691V192.214L136.071 192.25C135.036 192.25 134.132 192.905 133.871 193.905C133.098 196.833 131.921 199.524 130.387 202C129.828 202.893 129.959 204.06 130.708 204.81L137.604 211.714L130.102 219.226L123.205 212.321C122.456 211.571 121.291 211.441 120.387 212C117.926 213.536 115.287 214.667 112.326 215.464C111.327 215.726 110.638 216.631 110.638 217.667L110.649 227.31Z" fill="white"/>
<path d="M148.413 80.7262H49.772C48.5116 80.7262 47.501 79.7024 47.501 78.4524C47.501 77.2024 48.5235 76.1786 49.772 76.1786H148.413C149.673 76.1786 150.684 77.2024 150.684 78.4524C150.684 79.7024 149.673 80.7262 148.413 80.7262Z" fill="white"/>
<path d="M166.022 107.774H123.23C121.969 107.774 120.958 106.75 120.958 105.5C120.958 104.238 121.981 103.226 123.23 103.226H166.022C167.282 103.226 168.293 104.25 168.293 105.5C168.293 106.75 167.282 107.774 166.022 107.774Z" fill="white"/>
<path d="M294.103 219.905H228.541C227.28 219.905 226.27 218.881 226.27 217.631C226.27 216.381 227.292 215.357 228.541 215.357H294.103C295.363 215.357 296.374 216.381 296.374 217.631C296.374 218.881 295.363 219.905 294.103 219.905Z" fill="white"/>
<path d="M223.38 192.857H183.62C182.359 192.857 181.349 191.833 181.349 190.583C181.349 189.333 182.371 188.31 183.62 188.31H223.38C224.641 188.31 225.651 189.333 225.651 190.583C225.651 191.833 224.641 192.857 223.38 192.857Z" fill="white"/>
<path d="M259.205 192.857H245.246C243.986 192.857 242.975 191.833 242.975 190.583C242.975 189.333 243.998 188.31 245.246 188.31H259.205C260.465 188.31 261.476 189.333 261.476 190.583C261.476 191.833 260.454 192.857 259.205 192.857Z" fill="white"/>
<path d="M306.956 336.262C306.409 336.262 305.862 336.059 305.422 335.667L271.821 304.928C271.345 304.5 271.083 303.881 271.083 303.25C271.083 302.619 271.357 302 271.821 301.571L305.422 270.833C306.35 269.988 307.788 270.048 308.633 270.976C309.477 271.905 309.417 273.345 308.49 274.19L276.719 303.238L308.49 332.286C309.417 333.131 309.489 334.571 308.633 335.5C308.193 336.012 307.574 336.262 306.956 336.262Z" fill="white"/>
<path d="M371.293 336.262C370.675 336.262 370.057 336.012 369.617 335.524C368.773 334.595 368.832 333.155 369.76 332.31L401.53 303.262L369.76 274.214C368.832 273.369 368.761 271.929 369.617 271C370.461 270.072 371.9 270 372.827 270.857L406.429 301.595C406.904 302.024 407.166 302.643 407.166 303.274C407.166 303.905 406.893 304.524 406.429 304.952L372.827 335.691C372.399 336.06 371.84 336.262 371.293 336.262Z" fill="white"/>
<path d="M330.831 336.262C330.629 336.262 330.439 336.238 330.237 336.179C329.024 335.845 328.311 334.595 328.632 333.381L345.218 271.905C345.551 270.69 346.8 269.964 348.012 270.298C349.225 270.631 349.939 271.881 349.618 273.095L333.031 334.571C332.757 335.595 331.842 336.262 330.831 336.262Z" fill="white"/>
<path d="M463.24 399.5H210.135C203.381 399.5 197.888 394 197.888 387.25V261.845C197.888 260.583 198.91 259.571 200.159 259.571C201.419 259.571 202.43 260.595 202.43 261.845V387.262C202.43 391.5 205.878 394.952 210.123 394.952H463.24C467.544 394.952 471.052 391.429 471.052 387.083V198.333C471.052 194.75 468.234 191.952 464.643 191.952H342.971C341.711 191.952 340.7 190.929 340.7 189.679C340.7 188.417 341.723 187.405 342.971 187.405H464.655C470.695 187.405 475.618 192.31 475.618 198.345V387.095C475.606 393.929 470.053 399.5 463.24 399.5Z" fill="white"/>
<path d="M445.857 218.381H342.971C341.711 218.381 340.7 217.357 340.7 216.107C340.7 214.857 341.723 213.833 342.971 213.833H445.857C447.117 213.833 448.128 214.857 448.128 216.107C448.128 217.357 447.117 218.381 445.857 218.381Z" fill="white"/>
<path d="M404.277 203.5H342.971C341.711 203.5 340.7 202.476 340.7 201.226C340.7 199.976 341.723 198.952 342.971 198.952H404.277C405.537 198.952 406.548 199.976 406.548 201.226C406.548 202.476 405.537 203.5 404.277 203.5Z" fill="white"/>
<path d="M472.574 218.381H464.679C463.418 218.381 462.408 217.357 462.408 216.107C462.408 214.857 463.43 213.833 464.679 213.833H472.574C473.834 213.833 474.845 214.857 474.845 216.107C474.845 217.357 473.822 218.381 472.574 218.381Z" fill="white"/>
<path d="M461.647 160.345H447.985C446.725 160.345 445.714 159.321 445.714 158.071C445.714 156.821 446.736 155.798 447.985 155.798H461.647C462.907 155.798 463.918 156.821 463.918 158.071C463.918 159.321 462.907 160.345 461.647 160.345Z" fill="white"/>
<path d="M454.81 167.179C453.549 167.179 452.539 166.155 452.539 164.905V151.226C452.539 149.964 453.561 148.952 454.81 148.952C456.07 148.952 457.081 149.976 457.081 151.226V164.905C457.092 166.155 456.07 167.179 454.81 167.179Z" fill="white"/>
<path d="M401.245 51.25H387.583C386.323 51.25 385.312 50.2262 385.312 48.9762C385.312 47.7262 386.335 46.7024 387.583 46.7024H401.245C402.505 46.7024 403.516 47.7262 403.516 48.9762C403.516 50.2262 402.505 51.25 401.245 51.25Z" fill="white"/>
<path d="M394.42 58.0834C393.16 58.0834 392.149 57.0596 392.149 55.8096V42.131C392.149 40.8691 393.171 39.8572 394.42 39.8572C395.68 39.8572 396.691 40.881 396.691 42.131V55.8096C396.691 57.0596 395.668 58.0834 394.42 58.0834Z" fill="white"/>
<path d="M136.879 369.107H123.217C121.957 369.107 120.946 368.083 120.946 366.833C120.946 365.571 121.969 364.56 123.217 364.56H136.879C138.139 364.56 139.15 365.583 139.15 366.833C139.162 368.095 138.139 369.107 136.879 369.107Z" fill="white"/>
<path d="M130.054 375.952C128.794 375.952 127.783 374.928 127.783 373.678V360C127.783 358.738 128.806 357.726 130.054 357.726C131.303 357.726 132.325 358.75 132.325 360V373.678C132.337 374.928 131.315 375.952 130.054 375.952Z" fill="white"/>
<path d="M27.6208 295.881H13.959C12.6987 295.881 11.688 294.857 11.688 293.607C11.688 292.345 12.7105 291.333 13.959 291.333H27.6208C28.8811 291.333 29.8918 292.357 29.8918 293.607C29.8918 294.857 28.8811 295.881 27.6208 295.881Z" fill="white"/>
<path d="M20.7959 302.714C19.5356 302.714 18.5249 301.69 18.5249 300.44V286.762C18.5249 285.5 19.5475 284.488 20.7959 284.488C22.0444 284.488 23.0669 285.512 23.0669 286.762V300.44C23.0669 301.69 22.0444 302.714 20.7959 302.714Z" fill="white"/>
<path fill-rule="evenodd" clip-rule="evenodd" d="M155.333 276.893C153.656 276.893 152.301 278.25 152.301 279.929C152.301 281.619 153.656 282.976 155.333 282.964C157.009 282.964 158.365 281.607 158.365 279.929C158.365 278.25 157.009 276.893 155.333 276.893ZM162.598 285.798C161.361 284.667 161.278 282.738 162.407 281.5C163.537 280.262 165.463 280.179 166.7 281.309C167.936 282.44 168.02 284.369 166.89 285.607C166.296 286.262 165.475 286.595 164.655 286.595C163.918 286.607 163.18 286.333 162.598 285.798ZM143.359 281.905C142.182 283.095 142.194 285.024 143.383 286.202C143.966 286.786 144.739 287.083 145.512 287.083C146.296 287.083 147.081 286.786 147.676 286.179C148.853 284.988 148.841 283.059 147.652 281.881C146.463 280.702 144.537 280.714 143.359 281.905ZM166.082 293.345C166.022 291.667 167.33 290.262 169.007 290.202C170.683 290.143 172.086 291.452 172.146 293.131C172.205 294.809 170.897 296.214 169.221 296.274H169.102C167.485 296.274 166.141 294.988 166.082 293.345ZM141.493 290.917C139.816 290.94 138.473 292.345 138.496 294.024C138.52 295.69 139.876 297.095 141.528 297.083H141.564C143.241 297.083 144.584 295.643 144.56 293.964C144.548 292.286 143.169 290.893 141.493 290.917ZM163.311 305.417C162.086 304.274 162.027 302.345 163.18 301.119C164.322 299.893 166.248 299.833 167.473 300.988C168.697 302.131 168.757 304.059 167.603 305.286C167.009 305.917 166.2 306.238 165.392 306.238C164.643 306.25 163.894 305.976 163.311 305.417ZM143.573 301.595C142.408 302.809 142.444 304.69 143.657 305.905C144.239 306.512 145 306.75 145.761 306.75C146.558 306.75 147.355 306.429 147.949 305.809C149.102 304.595 149.079 302.679 147.866 301.512C146.653 300.345 144.739 300.393 143.573 301.595ZM155.606 304.488C153.93 304.536 152.598 305.893 152.646 307.571C152.681 309.214 154.037 310.464 155.678 310.464H155.749C157.426 310.464 158.757 309.083 158.71 307.405C158.674 305.726 157.283 304.452 155.606 304.488Z" fill="white"/>
<path fill-rule="evenodd" clip-rule="evenodd" d="M454.893 5.83337C453.217 5.83337 451.861 7.19052 451.861 8.86909C451.861 10.5477 453.217 11.9048 454.893 11.9048C456.57 11.9048 457.925 10.5477 457.925 8.86909C457.925 7.19052 456.57 5.83337 454.893 5.83337ZM462.17 14.7381C460.933 13.6072 460.85 11.6786 461.98 10.4405C463.109 9.20242 465.036 9.11909 466.272 10.25C467.509 11.381 467.592 13.3096 466.462 14.5477C465.868 15.2024 465.047 15.5358 464.227 15.5358C463.478 15.5358 462.753 15.2739 462.17 14.7381ZM442.932 10.8334C441.755 12.0238 441.767 13.9524 442.956 15.131C443.538 15.7262 444.311 16.0119 445.084 16.0119C445.869 16.0119 446.653 15.7143 447.248 15.1072C448.425 13.9167 448.413 11.9881 447.224 10.8096C446.035 9.63099 444.109 9.6429 442.932 10.8334ZM465.654 22.2738C465.594 20.5953 466.902 19.1905 468.579 19.131C470.255 19.0715 471.658 20.381 471.718 22.0596C471.777 23.7381 470.469 25.1429 468.793 25.2024H468.674C467.057 25.2024 465.713 23.9167 465.654 22.2738ZM441.065 19.8453C439.388 19.8691 438.045 21.2739 438.069 22.9524C438.092 24.6191 439.448 26.0239 441.101 26.0119H441.136C442.813 26.0119 444.156 24.5715 444.133 22.8929C444.121 21.2143 442.741 19.8215 441.065 19.8453ZM462.872 34.3572C461.647 33.2143 461.587 31.2858 462.741 30.0596C463.882 28.8334 465.808 28.7739 467.033 29.9286C468.258 31.0715 468.317 33 467.164 34.2262C466.569 34.8572 465.761 35.1786 464.952 35.1786C464.203 35.1786 463.466 34.9048 462.872 34.3572ZM443.146 30.5238C441.981 31.7381 442.016 33.6548 443.229 34.8215C443.812 35.3929 444.573 35.6667 445.334 35.6667C446.13 35.6667 446.927 35.3572 447.521 34.7381C448.687 33.5238 448.651 31.6072 447.438 30.4405C446.225 29.2858 444.311 29.3096 443.146 30.5238ZM455.167 33.4167C453.49 33.4643 452.158 34.8215 452.206 36.5C452.254 38.1548 453.597 39.3929 455.238 39.3929H455.309C456.986 39.3929 458.318 38.0119 458.27 36.3334C458.234 34.6548 456.843 33.381 455.167 33.4167Z" fill="white"/>
<path fill-rule="evenodd" clip-rule="evenodd" d="M374.765 120.702C373.089 120.702 371.733 122.06 371.733 123.738C371.733 125.417 373.089 126.774 374.765 126.774C376.442 126.774 377.797 125.417 377.797 123.738C377.797 122.06 376.442 120.702 374.765 120.702ZM382.042 129.607C380.805 128.476 380.722 126.548 381.852 125.31C382.981 124.071 384.908 123.988 386.144 125.119C387.381 126.25 387.464 128.179 386.334 129.417C385.74 130.071 384.919 130.405 384.099 130.405C383.35 130.405 382.625 130.143 382.042 129.607ZM362.804 125.702C361.627 126.893 361.639 128.821 362.828 130C363.41 130.595 364.183 130.881 364.956 130.881C365.741 130.881 366.525 130.583 367.12 129.976C368.297 128.786 368.285 126.857 367.096 125.679C365.907 124.5 363.981 124.512 362.804 125.702ZM385.526 137.095C385.466 135.417 386.774 134.036 388.451 133.964C390.127 133.905 391.53 135.179 391.59 136.857C391.649 138.536 390.341 139.976 388.665 139.976H388.546C386.929 139.988 385.585 138.738 385.526 137.095ZM360.937 134.714C359.261 134.738 357.917 136.143 357.941 137.821C357.965 139.488 359.308 140.893 360.973 140.881H361.008C362.685 140.881 364.028 139.44 364.005 137.762C363.993 136.083 362.614 134.69 360.937 134.714ZM382.744 149.226C381.519 148.083 381.459 146.155 382.613 144.929C383.754 143.702 385.68 143.643 386.905 144.798C388.13 145.94 388.189 147.869 387.036 149.095C386.441 149.726 385.633 150.048 384.824 150.048C384.075 150.048 383.338 149.774 382.744 149.226ZM363.006 145.393C361.853 146.607 361.888 148.524 363.089 149.69C363.684 150.262 364.445 150.536 365.194 150.536C365.99 150.536 366.787 150.226 367.382 149.607C368.547 148.393 368.511 146.476 367.298 145.31C366.085 144.155 364.171 144.19 363.006 145.393ZM375.039 148.286C373.362 148.333 372.031 149.69 372.078 151.369C372.126 153.024 373.469 154.262 375.11 154.262H375.181C376.858 154.262 378.19 152.881 378.142 151.202C378.106 149.524 376.715 148.25 375.039 148.286Z" fill="white"/>
<path fill-rule="evenodd" clip-rule="evenodd" d="M27.5495 351.655C25.873 351.655 24.5175 353.012 24.5175 354.69C24.5175 356.369 25.873 357.726 27.5495 357.726C29.226 357.726 30.5815 356.369 30.5815 354.69C30.5815 353.012 29.226 351.655 27.5495 351.655ZM34.8143 360.56C33.5778 359.429 33.4945 357.5 34.6241 356.262C35.7537 355.024 37.6799 354.94 38.9164 356.071C40.153 357.202 40.2363 359.131 39.1067 360.369C38.5122 361.024 37.6918 361.357 36.8713 361.357C36.1342 361.357 35.397 361.095 34.8143 360.56ZM15.5761 356.667C14.399 357.857 14.4109 359.786 15.5999 360.964C16.1944 361.548 16.9672 361.833 17.7282 361.845C18.513 361.845 19.2977 361.548 19.8922 360.94C21.0693 359.75 21.0575 357.821 19.8684 356.643C18.6794 355.464 16.7532 355.476 15.5761 356.667ZM38.31 368.06C38.2506 366.381 39.5585 365 41.235 364.929C42.9115 364.869 44.3146 366.143 44.374 367.821C44.4335 369.5 43.1256 370.94 41.449 370.94H41.342C39.7131 370.94 38.3695 369.69 38.31 368.06ZM13.7212 365.69C12.0447 365.702 10.7011 366.988 10.7249 368.81C10.7368 370.333 12.0923 371.845 13.7569 371.857H13.7926C15.4691 371.857 16.8127 370.417 16.7889 368.738C16.777 367.06 15.3977 365.667 13.7212 365.69ZM35.5278 380.179C34.3031 379.036 34.2436 377.107 35.397 375.881C36.5384 374.655 38.4646 374.595 39.6893 375.75C40.914 376.893 40.9734 378.821 39.8201 380.048C39.2256 380.679 38.4171 381 37.6085 381C36.8595 381 36.1104 380.726 35.5278 380.179ZM15.7901 376.345C14.6249 377.56 14.6606 379.476 15.8734 380.643C16.456 381.214 17.2169 381.488 17.9779 381.488C18.7745 381.488 19.5712 381.179 20.1657 380.56C21.3309 379.345 21.2953 377.429 20.0825 376.262C18.8697 375.107 16.9554 375.131 15.7901 376.345ZM27.8229 379.238C26.1464 379.286 24.8147 380.643 24.8623 382.321C24.898 383.976 26.2534 385.214 27.8943 385.214H27.9656C29.6421 385.214 30.9738 383.833 30.9263 382.155C30.8906 380.476 29.4995 379.19 27.8229 379.238Z" fill="white"/>
</svg>
