<svg width="90" height="41" viewBox="0 0 90 41" fill="none" xmlns="http://www.w3.org/2000/svg">
<path fill-rule="evenodd" clip-rule="evenodd" d="M2.02825 8.62988C0.914964 8.62988 0 10.0664 0 11.8142V29.0026C0 30.7434 0.914964 32.1799 2.02825 32.1799H12.9763C14.085 32.1799 15 30.7434 15 29.0026V11.8142C15 10.0664 14.085 8.62988 12.9763 8.62988H2.02825ZM2.02824 10.4414H12.9763C13.463 10.4414 13.8462 11.0429 13.8462 11.8142V29.0026C13.8462 29.7669 13.463 30.3683 12.9763 30.3683H2.02824C1.53695 30.3683 1.15384 29.7669 1.15384 29.0026V11.8142C1.15384 11.0429 1.53695 10.4414 2.02824 10.4414ZM2.30768 14.0645C2.30768 13.0667 2.82601 12.253 3.46153 12.253C4.09705 12.253 4.61539 13.0667 4.61539 14.0645C4.61539 15.0623 4.09705 15.876 3.46153 15.876C2.82601 15.876 2.30768 15.0623 2.30768 14.0645ZM2.30768 17.6876V28.5568H4.61539V17.6876H2.30768ZM5.76923 28.5568V17.6876H8.07692V19.2727H8.10397C8.40144 18.3669 8.94682 17.6876 10.0286 17.6876C12.2777 17.6876 12.6923 20.0794 12.6923 23.193V28.5568H10.3846V23.8015C10.3846 23.7267 10.3848 23.651 10.3851 23.5748C10.3889 22.2879 10.3932 20.8436 9.32092 20.8436C8.16707 20.8436 8.07692 22.1952 8.07692 23.7024V28.5568H5.76923Z" fill="#D2E0EC"/>
<ellipse cx="42.5" cy="20.4048" rx="12.5" ry="19.625" fill="#0E5E9C" fill-opacity="0.537484"/>
<path fill-rule="evenodd" clip-rule="evenodd" d="M49.2779 11.77H35.7515C35.3444 11.77 35 12.3107 35 12.9498V27.0094C35 27.6485 35.3444 28.1892 35.7515 28.1892H49.2465C49.6536 28.1892 49.998 27.6485 49.998 27.0094V12.9498C50.0294 12.3107 49.685 11.77 49.2779 11.77ZM42.5147 22.6339L36.0647 12.7531H48.965L42.5147 22.6339ZM35.6261 26.5664L39.9159 20.0286L35.6261 13.441V26.5664ZM40.3542 20.7168L42.2955 23.6663C42.4208 23.863 42.6086 23.863 42.7338 23.6663L44.6751 20.6676L48.9335 27.2058H36.096L40.3542 20.7168ZM49.4033 13.441L45.1135 20.0286L49.4033 26.5664V13.441Z" fill="#FDFDFD"/>
<ellipse cx="77.5" cy="20.4048" rx="12.5" ry="19.625" fill="#0E5E9C" fill-opacity="0.537484"/>
<path fill-rule="evenodd" clip-rule="evenodd" d="M70 10.7708C70 9.59998 70.6179 8.62988 71.3636 8.62988H83.6364C84.3821 8.62988 85 9.59998 85 10.7708V30.039C85 31.2098 84.3821 32.1799 83.6364 32.1799H71.3636C70.6179 32.1799 70 31.2098 70 30.039V10.7708ZM83.6364 10.7708H71.3636V30.039H77.9687V22.8134H76.179V19.602H77.9687V17.1935C77.9687 14.4296 79.0394 12.9451 80.6108 12.9451C81.3645 12.9451 82.0197 13.0079 82.2088 13.0455V15.9558H81.1008C80.2459 15.9558 80.0994 16.5914 80.0994 17.528V19.602H82.1236L81.8679 22.8134H80.0994V30.039H83.6364V10.7708Z" fill="#D2E0EC"/>
</svg>
