<svg width="118" height="40" viewBox="0 0 118 40" fill="none" xmlns="http://www.w3.org/2000/svg">
<path d="M0 39.65L9.32597 7.13525H22.5697L0 39.65Z" fill="#0E87C1"/>
<path d="M34.6069 0.399902L25.2811 32.9147H12.0371L34.6069 0.399902Z" fill="#0E5E9C"/>
<path d="M7.42941 39.6499L34.4565 0.399902L0 39.6484" fill="url(#paint0_linear_546_772)"/>
<path d="M115.489 18.4035V22.702H111.849V16.8896L110.291 18.398V30.1269L111.849 28.6276V25.0108H115.489V30.1278L117.062 28.614V16.8896L115.489 18.4035Z" fill="white"/>
<path d="M106.37 27.6071C105.029 27.6071 103.927 25.8864 103.927 23.4028C103.927 20.8804 105.029 19.2003 106.37 19.2003C107.175 19.2003 107.895 19.8731 108.331 20.9372L109.539 19.1796C108.788 17.6492 107.655 16.6572 106.37 16.6572C104.135 16.6572 102.316 19.6846 102.316 23.4028C102.316 27.1192 104.134 30.1276 106.37 30.1276C107.655 30.1276 108.788 29.1573 109.539 27.6251L108.331 25.8675C107.895 26.9325 107.175 27.6071 106.37 27.6071Z" fill="white"/>
<path d="M96.7926 27.8009V24.9627H99.5658L100.341 22.711H96.7926V19.2193H100.226L101.031 16.8896H95.2451V30.1278H100.465L101.264 27.8018H96.7926V27.8009Z" fill="white"/>
<path d="M94.4924 16.8896H88.8043L88.0225 19.2185H90.4653V30.1278L92.0369 28.5629V19.2194H93.7053L94.4924 16.8896Z" fill="white"/>
<path d="M83.9669 8.29639L81.1006 10.8345V29.8615L83.9669 27.3083V8.29639Z" fill="#0E87C1"/>
<path d="M79.778 8.29639H68.6439L67.2381 12.0442H74.6425L66.0537 29.7903H77.3401L78.7619 26.0252H70.98L79.778 8.29639Z" fill="#0E87C1"/>
<path d="M65.5062 8.65047L54.9524 8.29639L53.5465 12.0442H60.9509L51.8184 29.7903H63.6486L65.0703 26.0252H57.2884L65.5062 8.65047Z" fill="#0E87C1"/>
<path d="M65.7521 8.29639L51.8184 29.7903H55.8002L65.7521 8.29639Z" fill="#021132"/>
<path d="M55.8003 29.7904L65.7521 9.02539L52.3936 29.7904" fill="url(#paint1_linear_546_772)"/>
<path fill-rule="evenodd" clip-rule="evenodd" d="M37.4658 19.076C37.4658 12.9892 40.8097 8.06396 44.9286 8.06396C49.0686 8.06396 52.3928 12.9892 52.3932 19.076C52.3932 25.1627 49.0686 30.0887 44.9286 30.0887C40.8092 30.0887 37.4658 25.1627 37.4658 19.076ZM40.3915 19.0752C40.3915 22.8993 42.422 25.9884 44.9286 25.9884C47.437 25.9884 49.4876 22.8993 49.4876 19.0752C49.4876 15.2828 47.437 12.1628 44.9286 12.1628C42.4211 12.1628 40.3915 15.2828 40.3915 19.0752Z" fill="#0E87C1"/>
<defs>
<linearGradient id="paint0_linear_546_772" x1="23.3826" y1="24.6004" x2="19.3215" y2="17.4245" gradientUnits="userSpaceOnUse">
<stop stop-color="#8DC63F" stop-opacity="0.4"/>
<stop offset="1" stop-color="#8DC63F" stop-opacity="0.6"/>
</linearGradient>
<linearGradient id="paint1_linear_546_772" x1="61.4588" y1="21.8285" x2="59.0341" y2="18.6888" gradientUnits="userSpaceOnUse">
<stop stop-color="#8DC63F"/>
<stop offset="0.998716" stop-color="#8DC63F" stop-opacity="0.6"/>
</linearGradient>
</defs>
</svg>
