<svg width="579" height="480" viewBox="0 0 579 480" fill="none" xmlns="http://www.w3.org/2000/svg">
<rect x="444" y="150" width="30" height="30" fill="#5ED45E"/>
<rect x="444" y="60" width="30" height="30" fill="#5ED45E"/>
<rect x="51" y="56" width="131" height="50" fill="#5ED45E"/>
<rect x="51" y="127" width="50" height="38" fill="#5ED45E"/>
<rect x="132" y="127" width="50" height="38" fill="#5ED45E"/>
<rect x="148" y="344" width="83" height="49" fill="#FCD118"/>
<rect x="148" y="410" width="83" height="23" fill="#FCD118"/>
<path fill-rule="evenodd" clip-rule="evenodd" d="M90.5038 479.697H478.396C488.5 479.697 496.726 471.478 496.726 461.381V453.899C496.726 452.382 495.497 451.155 493.979 451.155H74.9204C73.4026 451.155 72.1738 452.382 72.1738 453.899V461.381C72.1738 471.478 80.3992 479.697 90.5038 479.697ZM77.6526 461.381V456.643H491.218V461.381C491.218 468.459 485.465 474.208 478.381 474.208H90.4893C83.406 474.208 77.6526 468.459 77.6526 461.381Z" fill="#1E243A"/>
<path d="M313.108 469.167H254.128C252.611 469.167 251.382 467.939 251.382 466.422V454.159C251.382 452.642 252.611 451.415 254.128 451.415C255.646 451.415 256.875 452.642 256.875 454.159V463.678H310.361V454.159C310.361 452.642 311.59 451.415 313.108 451.415C314.626 451.415 315.855 452.642 315.855 454.159V466.422C315.855 467.939 314.626 469.167 313.108 469.167Z" fill="#1E243A"/>
<path d="M464.387 453.61C462.87 453.61 461.641 452.382 461.641 450.866V252.168C461.641 244.382 456.205 238.937 448.414 238.937H233.066C231.548 238.937 230.319 237.709 230.319 236.192C230.319 234.676 231.548 233.448 233.066 233.448H448.428C459.27 233.448 467.148 241.32 467.148 252.168V450.866C467.148 452.382 465.905 453.61 464.387 453.61Z" fill="#1E243A"/>
<path d="M102.473 455.43C100.955 455.43 99.7266 454.202 99.7266 452.685V326.773C99.7266 325.257 100.955 324.029 102.473 324.029C103.991 324.029 105.22 325.257 105.22 326.773V452.685C105.22 454.202 103.991 455.43 102.473 455.43Z" fill="#1E243A"/>
<path d="M126.282 437.317C125.559 437.317 124.851 436.984 124.345 436.479C123.824 435.959 123.535 435.222 123.535 434.5V326.788C123.535 325.271 124.764 324.043 126.282 324.043C127.8 324.043 129.028 325.271 129.028 326.788V431.756L438.194 431.582V262.727H233.067C231.549 262.727 230.32 261.499 230.32 259.982C230.32 258.466 231.549 257.238 233.067 257.238H440.955C442.473 257.238 443.702 258.466 443.702 259.982V434.312C443.702 435.829 442.473 437.1 440.955 437.1L126.282 437.317Z" fill="#1E243A"/>
<path fill-rule="evenodd" clip-rule="evenodd" d="M147.199 395.37H230.16C231.678 395.37 232.907 394.142 232.907 392.625V343.904C232.907 342.388 231.678 341.16 230.16 341.16H147.199C145.681 341.16 144.452 342.388 144.452 343.904V392.625C144.452 394.142 145.681 395.37 147.199 395.37ZM227.399 389.881H149.931V346.649H227.399V389.881Z" fill="#1E243A"/>
<path d="M230.16 435.988C228.643 435.988 227.414 434.76 227.414 433.243V413.252H149.945V433.243C149.945 434.76 148.717 435.988 147.199 435.988C145.681 435.988 144.452 434.76 144.452 433.243V410.508C144.452 408.991 145.681 407.763 147.199 407.763H230.16C231.678 407.763 232.907 408.991 232.907 410.508V433.243C232.907 434.76 231.678 435.988 230.16 435.988Z" fill="#1E243A"/>
<path d="M337.104 293.84H250.659C249.141 293.84 247.912 292.612 247.912 291.096C247.912 289.579 249.141 288.351 250.659 288.351H337.104C338.622 288.351 339.851 289.579 339.851 291.096C339.851 292.612 338.622 293.84 337.104 293.84Z" fill="#1E243A"/>
<path d="M390.577 315.059H250.645C249.127 315.059 247.898 313.831 247.898 312.315C247.898 310.798 249.127 309.57 250.645 309.57H390.577C392.095 309.57 393.324 310.798 393.324 312.315C393.324 313.831 392.095 315.059 390.577 315.059Z" fill="#1E243A"/>
<path d="M337.104 360.458H250.659C249.141 360.458 247.912 359.23 247.912 357.713C247.912 356.197 249.141 354.969 250.659 354.969H337.104C338.622 354.969 339.851 356.197 339.851 357.713C339.851 359.215 338.622 360.458 337.104 360.458Z" fill="#1E243A"/>
<path d="M390.577 381.677H250.645C249.127 381.677 247.898 380.449 247.898 378.932C247.898 377.416 249.127 376.188 250.645 376.188H390.577C392.095 376.188 393.324 377.416 393.324 378.932C393.324 380.449 392.095 381.677 390.577 381.677Z" fill="#1E243A"/>
<path d="M337.104 424.505H250.659C249.141 424.505 247.912 423.277 247.912 421.76C247.912 420.243 249.141 419.016 250.659 419.016H337.104C338.622 419.016 339.851 420.243 339.851 421.76C339.851 423.277 338.622 424.505 337.104 424.505Z" fill="#1E243A"/>
<path fill-rule="evenodd" clip-rule="evenodd" d="M13.7656 327.523H219.238C226.821 327.523 233.003 321.339 233.003 313.753V14.406C233.003 6.80561 226.821 0.635742 219.238 0.635742H13.7656C6.16778 0.635742 0 6.82006 0 14.406V313.753C0 321.353 6.18222 327.523 13.7656 327.523ZM5.48889 14.406C5.48889 9.83997 9.20111 6.12649 13.7656 6.12649H219.238C223.802 6.12649 227.514 9.83997 227.514 14.406V313.753C227.514 318.319 223.802 322.032 219.238 322.032H13.7656C9.20111 322.032 5.48889 318.319 5.48889 313.753V14.406Z" fill="#1E243A"/>
<path fill-rule="evenodd" clip-rule="evenodd" d="M38.5234 288.64H194.48C202.063 288.64 208.246 282.47 208.246 274.884V43.8393C208.246 36.239 202.063 30.0691 194.48 30.0691H38.5234C30.9256 30.0691 24.7578 36.2534 24.7578 43.8393V274.87C24.7578 282.47 30.94 288.64 38.5234 288.64ZM30.2467 43.8393C30.2467 39.2733 33.9589 35.5598 38.5234 35.5598H194.48C199.044 35.5598 202.757 39.2733 202.757 43.8393V274.884C202.757 279.45 199.044 283.164 194.48 283.164H38.5234C33.9589 283.164 30.2467 279.45 30.2467 274.884V43.8393Z" fill="#1E243A"/>
<path fill-rule="evenodd" clip-rule="evenodd" d="M51.0462 109.208H181.956C183.473 109.208 184.701 107.98 184.686 106.463V56.0491C184.686 54.5319 183.458 53.3037 181.942 53.3037H51.0462C49.5295 53.3037 48.3018 54.5319 48.3018 56.0491V106.463C48.3018 107.98 49.5295 109.208 51.0462 109.208ZM179.197 103.703H53.7906V58.7945H179.197V103.703Z" fill="#1E243A"/>
<path fill-rule="evenodd" clip-rule="evenodd" d="M51.0462 167.295H101.4C102.916 167.295 104.144 166.066 104.144 164.549V126.779C104.144 125.261 102.916 124.033 101.4 124.033H51.0462C49.5295 124.033 48.3018 125.261 48.3018 126.779V164.549C48.3018 166.066 49.5295 167.295 51.0462 167.295ZM98.6551 161.804H53.7906V129.524H98.6551V161.804Z" fill="#1E243A"/>
<path fill-rule="evenodd" clip-rule="evenodd" d="M131.604 167.295H181.957C183.474 167.295 184.702 166.066 184.702 164.549V126.779C184.702 125.261 183.474 124.033 181.957 124.033H131.604C130.087 124.033 128.859 125.261 128.859 126.779V164.549C128.859 166.066 130.087 167.295 131.604 167.295ZM179.198 161.804H134.348V129.524H179.198V161.804Z" fill="#1E243A"/>
<path d="M101.386 205.614H51.2493C49.7327 205.614 48.5049 204.386 48.5049 202.869C48.5049 201.351 49.7327 200.123 51.2493 200.123H101.4C102.917 200.123 104.145 201.351 104.145 202.869C104.145 204.386 102.903 205.614 101.386 205.614Z" fill="#1E243A"/>
<path d="M101.386 185.472H51.2493C49.7327 185.472 48.5049 184.244 48.5049 182.726C48.5049 181.209 49.7327 179.981 51.2493 179.981H101.4C102.917 179.981 104.145 181.209 104.145 182.726C104.145 184.244 102.903 185.472 101.386 185.472Z" fill="#1E243A"/>
<path d="M101.386 226.479H51.2493C49.7327 226.479 48.5049 225.251 48.5049 223.734C48.5049 222.216 49.7327 220.988 51.2493 220.988H101.4C102.917 220.988 104.145 222.216 104.145 223.734C104.145 225.251 102.903 226.479 101.386 226.479Z" fill="#1E243A"/>
<path d="M101.386 246.621H51.2493C49.7327 246.621 48.5049 245.393 48.5049 243.876C48.5049 242.359 49.7327 241.131 51.2493 241.131H101.4C102.917 241.131 104.145 242.359 104.145 243.876C104.145 245.393 102.903 246.621 101.386 246.621Z" fill="#1E243A"/>
<path d="M101.386 267.486H51.2493C49.7327 267.486 48.5049 266.258 48.5049 264.741C48.5049 263.224 49.7327 261.995 51.2493 261.995H101.4C102.917 261.995 104.145 263.224 104.145 264.741C104.145 266.258 102.903 267.486 101.386 267.486Z" fill="#1E243A"/>
<path d="M181.913 205.614H131.401C129.884 205.614 128.656 204.386 128.656 202.869C128.656 201.351 129.884 200.123 131.401 200.123H181.913C183.43 200.123 184.657 201.351 184.657 202.869C184.657 204.386 183.43 205.614 181.913 205.614Z" fill="#1E243A"/>
<path d="M181.913 185.472H131.401C129.884 185.472 128.656 184.244 128.656 182.726C128.656 181.209 129.884 179.981 131.401 179.981H181.913C183.43 179.981 184.657 181.209 184.657 182.726C184.657 184.244 183.43 185.472 181.913 185.472Z" fill="#1E243A"/>
<path d="M181.913 226.479H131.401C129.884 226.479 128.656 225.251 128.656 223.734C128.656 222.216 129.884 220.988 131.401 220.988H181.913C183.43 220.988 184.657 222.216 184.657 223.734C184.657 225.251 183.43 226.479 181.913 226.479Z" fill="#1E243A"/>
<path d="M181.913 246.621H131.401C129.884 246.621 128.656 245.393 128.656 243.876C128.656 242.359 129.884 241.131 131.401 241.131H181.913C183.43 241.131 184.657 242.359 184.657 243.876C184.657 245.393 183.43 246.621 181.913 246.621Z" fill="#1E243A"/>
<path d="M181.913 267.486H131.401C129.884 267.486 128.656 266.258 128.656 264.741C128.656 263.224 129.884 261.995 131.401 261.995H181.913C183.43 261.995 184.657 263.224 184.657 264.741C184.657 266.258 183.43 267.486 181.913 267.486Z" fill="#1E243A"/>
<path fill-rule="evenodd" clip-rule="evenodd" d="M104.953 305.329C104.953 311.701 110.124 316.874 116.494 316.874C122.864 316.874 128.035 311.687 128.035 305.329C128.035 298.957 122.864 293.784 116.494 293.784C110.124 293.784 104.953 298.957 104.953 305.329ZM110.442 305.329C110.442 301.991 113.158 299.275 116.494 299.275C119.831 299.275 122.546 301.991 122.546 305.329C122.546 308.667 119.831 311.383 116.494 311.383C113.158 311.383 110.442 308.667 110.442 305.329Z" fill="#1E243A"/>
<path d="M133.236 20.7058H99.9271C98.4104 20.7058 97.1826 19.4776 97.1826 17.9605C97.1826 16.4433 98.4104 15.2151 99.9271 15.2151H133.236C134.753 15.2151 135.98 16.4433 135.98 17.9605C135.98 19.4776 134.753 20.7058 133.236 20.7058Z" fill="#1E243A"/>
<path d="M567.193 291.928H467.066C465.549 291.928 464.32 290.699 464.32 289.181C464.32 287.663 465.549 286.435 467.066 286.435H567.193C570.315 286.435 572.845 283.89 572.845 280.782V11.4631C572.845 8.34069 570.301 5.81099 567.193 5.81099H432.997C429.875 5.81099 427.345 8.35515 427.345 11.4631V233.542C427.345 235.06 426.117 236.289 424.599 236.289C423.081 236.289 421.853 235.06 421.853 233.542V11.4631C421.853 5.31951 426.854 0.303467 433.011 0.303467H567.207C573.351 0.303467 578.366 5.30505 578.366 11.4631V280.768C578.337 286.926 573.336 291.928 567.193 291.928Z" fill="#1E243A"/>
<path d="M575.808 44.5229H424.527C423.009 44.5229 421.78 43.2941 421.78 41.7763C421.78 40.2585 423.009 39.0298 424.527 39.0298H575.808C577.326 39.0298 578.554 40.2585 578.554 41.7763C578.554 43.2941 577.326 44.5229 575.808 44.5229Z" fill="#1E243A"/>
<path d="M574.349 254.055H465.564C464.046 254.055 462.817 252.826 462.817 251.308C462.817 249.79 464.046 248.562 465.564 248.562H574.349C575.866 248.562 577.095 249.79 577.095 251.308C577.095 252.826 575.866 254.055 574.349 254.055Z" fill="#1E243A"/>
<path d="M514.275 25.109H486.074C484.557 25.109 483.328 23.8803 483.328 22.3625C483.328 20.8447 484.557 19.616 486.074 19.616H514.275C515.793 19.616 517.022 20.8447 517.022 22.3625C517.022 23.8803 515.793 25.109 514.275 25.109Z" fill="#1E243A"/>
<path fill-rule="evenodd" clip-rule="evenodd" d="M490.772 270.1C490.772 275.333 495.037 279.597 500.269 279.597C505.502 279.597 509.751 275.347 509.766 270.1C509.766 264.867 505.502 260.603 500.269 260.603C495.037 260.603 490.772 264.867 490.772 270.1ZM496.28 270.1C496.28 267.903 498.072 266.11 500.269 266.11C502.466 266.11 504.259 267.903 504.259 270.1C504.259 272.297 502.466 274.09 500.269 274.09C498.072 274.09 496.28 272.297 496.28 270.1Z" fill="#1E243A"/>
<path fill-rule="evenodd" clip-rule="evenodd" d="M444.459 92.6016H474.106C475.623 92.6016 476.852 91.3729 476.852 89.8551V60.207C476.852 58.6892 475.623 57.4604 474.106 57.4604H444.459C442.942 57.4604 441.713 58.6892 441.713 60.207V89.8551C441.713 91.3729 442.942 92.6016 444.459 92.6016ZM471.359 87.1086H447.206V62.9535H471.359V87.1086Z" fill="#1E243A"/>
<path d="M533.312 71.2653H486.06C484.542 71.2653 483.313 70.0366 483.313 68.5188C483.313 67.0009 484.542 65.7722 486.06 65.7722H533.312C534.829 65.7722 536.058 67.0009 536.058 68.5188C536.073 70.0366 534.829 71.2653 533.312 71.2653Z" fill="#1E243A"/>
<path d="M555.658 84.4489H486.06C484.542 84.4489 483.313 83.2202 483.313 81.7023C483.313 80.1845 484.542 78.9558 486.06 78.9558H555.658C557.176 78.9558 558.405 80.1845 558.405 81.7023C558.405 83.2202 557.176 84.4489 555.658 84.4489Z" fill="#1E243A"/>
<path fill-rule="evenodd" clip-rule="evenodd" d="M444.459 137.385H474.106C475.623 137.385 476.852 136.156 476.852 134.638V104.99C476.852 103.472 475.623 102.243 474.106 102.243H444.459C442.942 102.243 441.713 103.472 441.713 104.99V134.638C441.713 136.156 442.942 137.385 444.459 137.385ZM471.359 131.892H447.206V107.736H471.359V131.892Z" fill="#1E243A"/>
<path d="M533.312 115.962H486.06C484.542 115.962 483.313 114.733 483.313 113.215C483.313 111.697 484.542 110.469 486.06 110.469H533.312C534.829 110.469 536.058 111.697 536.058 113.215C536.058 114.733 534.829 115.962 533.312 115.962Z" fill="#1E243A"/>
<path d="M555.658 129.506H486.06C484.542 129.506 483.313 128.278 483.313 126.76C483.313 125.242 484.542 124.013 486.06 124.013H555.658C557.176 124.013 558.405 125.242 558.405 126.76C558.405 128.278 557.176 129.506 555.658 129.506Z" fill="#1E243A"/>
<path fill-rule="evenodd" clip-rule="evenodd" d="M444.459 182.182H474.106C475.623 182.182 476.852 180.939 476.852 179.435V149.787C476.852 148.269 475.623 147.041 474.106 147.041H444.459C442.942 147.041 441.713 148.269 441.713 149.787V179.435C441.713 180.953 442.942 182.182 444.459 182.182ZM471.359 176.674H447.206V152.519H471.359V176.674Z" fill="#1E243A"/>
<path d="M533.312 160.282H486.06C484.542 160.282 483.313 159.053 483.313 157.536C483.313 156.018 484.542 154.789 486.06 154.789H533.312C534.829 154.789 536.058 156.018 536.058 157.536C536.058 159.053 534.829 160.282 533.312 160.282Z" fill="#1E243A"/>
<path d="M555.658 174.564H486.06C484.542 174.564 483.313 173.335 483.313 171.818C483.313 170.3 484.542 169.071 486.06 169.071H555.658C557.176 169.071 558.405 170.3 558.405 171.818C558.405 173.335 557.176 174.564 555.658 174.564Z" fill="#1E243A"/>
<path fill-rule="evenodd" clip-rule="evenodd" d="M444.459 226.965H474.106C475.623 226.965 476.852 225.736 476.852 224.218V194.57C476.852 193.052 475.623 191.824 474.106 191.824H444.459C442.942 191.824 441.713 193.052 441.713 194.57V224.218C441.713 225.736 442.942 226.965 444.459 226.965ZM471.359 221.472H447.206V197.317H471.359V221.472Z" fill="#1E243A"/>
<path d="M533.312 205.34H486.06C484.542 205.34 483.313 204.111 483.313 202.593C483.313 201.075 484.542 199.846 486.06 199.846H533.312C534.829 199.846 536.058 201.075 536.058 202.593C536.073 204.111 534.829 205.34 533.312 205.34Z" fill="#1E243A"/>
<path d="M555.658 219.26H486.06C484.542 219.26 483.313 218.031 483.313 216.514C483.313 214.996 484.542 213.767 486.06 213.767H555.658C557.176 213.767 558.405 214.996 558.405 216.514C558.405 218.017 557.176 219.26 555.658 219.26Z" fill="#1E243A"/>
<path fill-rule="evenodd" clip-rule="evenodd" d="M453.321 128.523H465.246C466.763 128.523 467.992 127.295 467.992 125.777V113.851C467.992 112.333 466.763 111.104 465.246 111.104H453.321C451.803 111.104 450.574 112.333 450.574 113.851V125.777C450.574 127.295 451.803 128.523 453.321 128.523ZM462.499 123.03H456.067V116.598H462.499V123.03Z" fill="#1E243A"/>
<path fill-rule="evenodd" clip-rule="evenodd" d="M453.321 218.104H465.246C466.763 218.104 467.992 216.875 467.992 215.357V203.432C467.992 201.914 466.763 200.685 465.246 200.685H453.321C451.803 200.685 450.574 201.914 450.574 203.432V215.357C450.574 216.875 451.803 218.104 453.321 218.104ZM462.499 212.611H456.067V206.178H462.499V212.611Z" fill="#1E243A"/>
<path d="M279.816 205.779C278.307 205.779 277.085 204.529 277.085 202.985V186.221C277.085 184.677 278.307 183.427 279.816 183.427C281.326 183.427 282.547 184.677 282.547 186.221V202.985C282.547 204.529 281.326 205.779 279.816 205.779Z" fill="white"/>
<path d="M288.01 197.397H271.623C270.113 197.397 268.892 196.147 268.892 194.603C268.892 193.059 270.113 191.809 271.623 191.809H288.01C289.52 191.809 290.742 193.059 290.742 194.603C290.742 196.147 289.52 197.397 288.01 197.397Z" fill="white"/>
<path d="M276.427 33.6322C274.883 33.6322 273.633 32.3822 273.633 30.8381V14.0734C273.633 12.5293 274.883 11.2793 276.427 11.2793C277.971 11.2793 279.221 12.5293 279.221 14.0734V30.8381C279.221 32.3822 277.971 33.6322 276.427 33.6322Z" fill="white"/>
<path d="M284.809 25.2501H268.044C266.5 25.2501 265.25 24.0001 265.25 22.456C265.25 20.9119 266.5 19.6619 268.044 19.6619H284.809C286.353 19.6619 287.603 20.9119 287.603 22.456C287.603 24.0001 286.353 25.2501 284.809 25.2501Z" fill="white"/>
<path d="M543.025 461.994C541.516 461.994 540.294 460.772 540.294 459.263V442.875C540.294 441.366 541.516 440.144 543.025 440.144C544.535 440.144 545.756 441.366 545.756 442.875V459.263C545.756 460.772 544.535 461.994 543.025 461.994Z" fill="white"/>
<path d="M551.219 453.8H534.832C533.322 453.8 532.101 452.578 532.101 451.069C532.101 449.559 533.322 448.337 534.832 448.337H551.219C552.729 448.337 553.951 449.559 553.951 451.069C553.951 452.578 552.729 453.8 551.219 453.8Z" fill="white"/>
<path fill-rule="evenodd" clip-rule="evenodd" d="M355.492 89C353.45 89 351.802 90.6154 351.802 92.6169C351.802 94.6183 353.464 96.2337 355.492 96.2337C357.519 96.2337 359.182 94.6183 359.182 92.6169C359.182 90.6297 357.534 89 355.492 89ZM364.345 99.6076C362.842 98.2495 362.74 95.9621 364.126 94.4896C365.511 93.0172 367.845 92.9171 369.347 94.2752C370.849 95.6333 370.951 97.9207 369.566 99.3931C368.837 100.165 367.845 100.565 366.838 100.565C365.949 100.565 365.059 100.251 364.345 99.6076ZM340.922 94.9757C339.478 96.391 339.492 98.6926 340.951 100.094C341.666 100.78 342.614 101.137 343.547 101.152C344.495 101.152 345.443 100.794 346.172 100.079C347.616 98.6497 347.601 96.3624 346.143 94.9471C344.699 93.5318 342.351 93.5461 340.922 94.9757ZM368.603 108.543C368.53 106.541 370.12 104.883 372.162 104.811C374.204 104.74 375.91 106.255 375.998 108.257C376.071 110.258 374.481 111.974 372.439 111.974H372.308C370.31 111.974 368.676 110.501 368.603 108.543ZM338.588 105.712C336.546 105.741 334.971 107.413 335 109.415C335.03 111.402 336.678 113.06 338.69 113.089H338.734C340.776 113.089 342.264 111.259 342.264 109.257C342.264 107.256 340.63 105.683 338.588 105.712ZM365.22 122.996C363.732 121.623 363.659 119.336 365.059 117.878C366.459 116.42 368.793 116.348 370.28 117.721C371.768 119.093 371.841 121.38 370.441 122.838C369.712 123.596 368.734 123.982 367.743 123.982C366.838 123.982 365.934 123.653 365.22 122.996ZM341.184 118.435C339.77 119.879 339.813 122.167 341.286 123.553C342.001 124.225 342.92 124.568 343.839 124.568C344.816 124.568 345.778 124.182 346.508 123.453C347.922 122.009 347.879 119.722 346.406 118.335C344.932 116.949 342.599 116.991 341.184 118.435ZM355.827 121.881C353.785 121.938 352.166 123.553 352.225 125.555C352.269 127.528 353.917 129 355.915 129H356.002C358.044 129 359.663 127.356 359.605 125.355C359.561 123.353 357.869 121.838 355.827 121.881Z" fill="white"/>
<path fill-rule="evenodd" clip-rule="evenodd" d="M520.499 324C518.456 324 516.808 325.615 516.808 327.617C516.808 329.618 518.456 331.248 520.499 331.234C522.527 331.234 524.19 329.618 524.19 327.617C524.19 325.63 522.542 324 520.499 324ZM529.355 334.622C527.852 333.264 527.75 330.976 529.136 329.504C530.522 328.031 532.857 327.931 534.359 329.289C535.862 330.648 535.964 332.935 534.578 334.407C533.849 335.179 532.857 335.58 531.85 335.58C530.96 335.565 530.07 335.251 529.355 334.622ZM505.924 329.976C504.479 331.391 504.494 333.693 505.953 335.094C506.668 335.794 507.602 336.137 508.55 336.152C509.498 336.152 510.447 335.794 511.176 335.079C512.621 333.65 512.606 331.362 511.147 329.947C509.703 328.532 507.354 328.546 505.924 329.976ZM533.601 343.557C533.528 341.555 535.118 339.897 537.16 339.826C539.203 339.754 540.91 341.269 540.998 343.271C541.071 345.272 539.48 346.988 537.438 346.988H537.292C535.322 346.988 533.674 345.501 533.601 343.557ZM503.589 340.712C501.547 340.74 499.971 342.413 500 344.415C500.03 346.402 501.678 348.074 503.692 348.089H503.735C505.778 348.089 507.266 346.259 507.266 344.257C507.266 342.256 505.632 340.683 503.589 340.712ZM530.216 358.01C528.728 356.638 528.655 354.35 530.055 352.892C531.456 351.434 533.79 351.362 535.278 352.735C536.767 354.107 536.84 356.394 535.439 357.853C534.709 358.61 533.732 358.996 532.74 358.996C531.85 358.982 530.931 358.653 530.216 358.01ZM506.186 353.435C504.771 354.879 504.815 357.166 506.289 358.553C507.003 359.239 507.923 359.568 508.842 359.568C509.819 359.568 510.782 359.196 511.512 358.453C512.927 357.009 512.883 354.722 511.41 353.335C509.936 351.948 507.602 351.991 506.186 353.435ZM520.835 356.881C518.792 356.938 517.173 358.553 517.231 360.555C517.275 362.527 518.923 364.014 520.922 364H521.01C523.052 364 524.672 362.356 524.613 360.354C524.57 358.353 522.877 356.838 520.835 356.881Z" fill="white"/>
<path fill-rule="evenodd" clip-rule="evenodd" d="M41.499 359C39.4564 359 37.8078 360.615 37.8078 362.617C37.8078 364.618 39.4564 366.234 41.499 366.234C43.527 366.234 45.1902 364.618 45.1902 362.617C45.1902 360.63 43.5416 359 41.499 359ZM50.355 369.608C48.8522 368.249 48.7501 365.962 50.1361 364.49C51.5221 363.017 53.8565 362.917 55.3592 364.275C56.862 365.633 56.9641 367.921 55.5781 369.393C54.8486 370.165 53.8565 370.565 52.8498 370.565C51.9598 370.565 51.0699 370.251 50.355 369.608ZM26.9238 364.976C25.4794 366.391 25.494 368.693 26.953 370.094C27.6679 370.794 28.6016 371.137 29.55 371.152C30.4983 371.152 31.4466 370.794 32.1761 370.079C33.6205 368.65 33.6059 366.362 32.147 364.947C30.7026 363.532 28.3536 363.546 26.9238 364.976ZM54.6006 378.542C54.5276 376.541 56.1179 374.883 58.1605 374.811C60.203 374.74 61.91 376.255 61.9976 378.257C62.0705 380.258 60.4803 381.973 58.4377 381.973H58.3064C56.3076 381.988 54.6735 380.501 54.6006 378.542ZM24.6478 375.712C22.6053 375.74 20.9712 377.413 21.0004 379.415C21.0296 381.402 22.6782 383.074 24.6916 383.074H24.7354C26.7779 383.074 28.412 381.344 28.3828 379.343C28.3682 377.342 26.6904 375.683 24.6478 375.712ZM51.2158 392.996C49.7276 391.623 49.6547 389.336 51.0553 387.878C52.4559 386.42 54.7902 386.348 56.2784 387.72C57.7666 389.093 57.8395 391.38 56.4389 392.838C55.7094 393.596 54.7319 393.982 53.7398 393.982C52.8498 393.982 51.9307 393.653 51.2158 392.996ZM27.1718 388.435C25.7566 389.879 25.8004 392.166 27.274 393.553C27.9889 394.225 28.9226 394.568 29.8272 394.568C30.8047 394.568 31.7676 394.196 32.4971 393.453C33.9123 392.009 33.8685 389.722 32.395 388.335C30.9214 386.948 28.5871 386.991 27.1718 388.435ZM41.8346 391.881C39.792 391.938 38.1725 393.553 38.2309 395.555C38.2747 397.527 39.9233 399.014 41.9221 399H42.0096C44.0522 399 45.6717 397.356 45.6133 395.354C45.5695 393.353 43.8771 391.838 41.8346 391.881Z" fill="white"/>
</svg>
